<svg xmlns="http://www.w3.org/2000/svg" version="1.1" xmlns:xlink="http://www.w3.org/1999/xlink" xmlns:svgjs="http://svgjs.dev/svgjs" width="2000" height="2250" viewBox="0 0 2000 2250"><g transform="matrix(1,0,0,1,0.00006703124972773367,0)"><svg viewBox="0 0 320 360" data-background-color="#ffffff" preserveAspectRatio="xMidYMid meet" height="2250" width="2000" xmlns="http://www.w3.org/2000/svg" xmlns:xlink="http://www.w3.org/1999/xlink"><g id="tight-bounds" transform="matrix(1,0,0,1,0.00001072500003829191,0)"><svg viewBox="0 0 320 360" height="360" width="320"><g><svg></svg></g><g><svg viewBox="0 0 320 360" height="360" width="320"><g><path transform="translate(-21.67367,-1.67367) scale(3.63347,3.63347)" d="M87.84 28.16c-3.42-5.92-31.01-21.84-37.84-21.84-6.83 0-34.41 15.92-37.84 21.84-3.19 5.51-3.19 38.18 0 43.69 3.43 5.91 31.01 21.83 37.84 21.83 6.83 0 34.42-15.92 37.84-21.84 3.19-5.51 3.19-38.17 0-43.68zM91.14 26.25c-3.98-6.88-32.88-23.75-41.14-23.75-8.26 0-37.16 16.87-41.14 23.75-3.86 6.66-3.86 40.84 0 47.5 3.98 6.88 32.88 23.75 41.14 23.75 8.26 0 37.16-16.87 41.14-23.74 3.86-6.67 3.86-40.85 0-47.51zM88.78 72.39c-3.51 6.07-31.78 22.38-38.78 22.38-7 0-35.27-16.32-38.78-22.39-3.27-5.65-3.27-39.13 0-44.78 3.51-6.06 31.78-22.37 38.78-22.37 7 0 35.27 16.32 38.78 22.38 3.27 5.65 3.27 39.13 0 44.78z" fill="#ea3c12" fill-rule="nonzero" stroke="none" stroke-width="1" stroke-linecap="butt" stroke-linejoin="miter" stroke-miterlimit="10" stroke-dasharray="" stroke-dashoffset="0" font-family="none" font-weight="none" font-size="none" text-anchor="none" style="mix-blend-mode: normal" data-fill-palette-color="tertiary"></path></g><g transform="matrix(1,0,0,1,82.73317556233539,90)"><svg viewBox="0 0 154.53364887532922 180" height="180" width="154.53364887532922"><g><svg viewBox="0 0 154.53364887532922 180" height="180" width="154.53364887532922"><g><svg viewBox="0 0 224 260.91404877476464" height="180" width="154.53364887532922"><g transform="matrix(1,0,0,1,0,155.20151273152888)"><svg viewBox="0 0 224 105.71253604323579" height="105.71253604323579" width="224"><g id="textblocktransform"><svg viewBox="0 0 224 105.71253604323579" height="105.71253604323579" width="224" id="textblock"><g><svg viewBox="0 0 224 71.03438185808339" height="71.03438185808339" width="224"><g transform="matrix(1,0,0,1,0,0)"><svg width="224" viewBox="0.95 -33.8 136.69 43.349999999999994" height="71.03438185808339" data-palette-color="#ffffff"><path d="M23.55-32.1L23.85-31.65 23.55-27.75 17.75-28.05 15.05-28.05 14.8-10.1 15.05 0 9.85 0 10.15-9.65 9.9-28.05 7.2-28.05 1.3-27.75 0.95-28.2 1.35-32.1 23.55-32.1ZM28.45 0L28.65-9.65 28.5-22.7 33.5-23.15 33.3-10.1 33.45 0 28.45 0ZM31.05-33.8Q32.3-33.8 33-33.08 33.7-32.35 33.7-31.05L33.7-31.05Q33.7-29.7 32.95-28.9 32.2-28.1 30.9-28.1L30.9-28.1Q29.6-28.1 28.87-28.85 28.15-29.6 28.15-30.9L28.15-30.9Q28.15-32.2 28.92-33 29.7-33.8 31.05-33.8L31.05-33.8ZM69.05 0L69.34-15.15Q69.4-17.05 68.47-18.13 67.55-19.2 65.8-19.2L65.8-19.2Q62.95-19.2 59.9-16.3L59.9-16.3 59.8-10.1 60.05 0 54.9 0 55.25-15.15Q55.3-17.05 54.37-18.13 53.45-19.2 51.7-19.2L51.7-19.2Q48.8-19.2 45.7-16.2L45.7-16.2 45.65-10.1 45.95 0 40.85 0 41.15-9.65 40.9-22.7 45.75-23.15 45.7-19.8 46.05-19.8Q49-22.4 52.2-23.35L52.2-23.35Q55-23.35 56.82-22.38 58.65-21.4 59.4-19.6L59.4-19.6 59.7-19.6Q62.75-22.25 66.3-23.35L66.3-23.35Q70.15-23.35 72.12-21.6 74.09-19.85 74.05-16.6L74.05-16.6 73.9-10.1 74.15 0 69.05 0ZM108.79 0L109.09-15.15Q109.14-17.05 108.22-18.13 107.29-19.2 105.54-19.2L105.54-19.2Q102.69-19.2 99.64-16.3L99.64-16.3 99.54-10.1 99.79 0 94.64 0 94.99-15.15Q95.04-17.05 94.12-18.13 93.19-19.2 91.44-19.2L91.44-19.2Q88.54-19.2 85.44-16.2L85.44-16.2 85.39-10.1 85.69 0 80.59 0 80.89-9.65 80.64-22.7 85.49-23.15 85.44-19.8 85.79-19.8Q88.74-22.4 91.94-23.35L91.94-23.35Q94.74-23.35 96.57-22.38 98.39-21.4 99.14-19.6L99.14-19.6 99.44-19.6Q102.49-22.25 106.04-23.35L106.04-23.35Q109.89-23.35 111.87-21.6 113.84-19.85 113.79-16.6L113.79-16.6 113.64-10.1 113.89 0 108.79 0ZM121.29-23.2L122.04-19.95 127.04-5.3 127.39-5.3 132.39-19.5 133.24-23.05 137.64-23.05 129.69-1.15Q128.49 2.25 127.04 4.28 125.59 6.3 123.47 7.5 121.34 8.7 117.94 9.55L117.94 9.55 117.49 9.55Q116.29 8.35 115.39 6.55L115.39 6.55 115.54 6Q119.09 5.35 121.14 4.1 123.19 2.85 124.89 0L124.89 0 116.49-22.95 121.29-23.2Z" opacity="1" transform="matrix(1,0,0,1,0,0)" fill="#ffffff" class="wordmark-text-0" data-fill-palette-color="quaternary" id="text-0"></path></svg></g></svg></g><g transform="matrix(1,0,0,1,0,87.80389458961228)"><svg viewBox="0 0 224 17.908641453623495" height="17.908641453623495" width="224"><g transform="matrix(1,0,0,1,0,0)"><svg width="224" viewBox="4.47 -36.04 577.6899999999999 46.199999999999996" height="17.908641453623495" data-palette-color="#ffffff"><path d="M9.16-35.55L9.16 0 4.47 0 4.47-35.55 9.16-35.55ZM17.01-26.42L21.29-26.42 21.43-23.1Q24.46-26.9 29.34-26.9L29.34-26.9Q37.72-26.9 37.79-17.46L37.79-17.46 37.79 0 33.27 0 33.27-17.48Q33.25-20.34 31.97-21.7 30.69-23.07 27.98-23.07L27.98-23.07Q25.78-23.07 24.12-21.9 22.46-20.73 21.53-18.82L21.53-18.82 21.53 0 17.01 0 17.01-26.42ZM59.98-7.01L59.98-7.01Q59.98-8.84 58.6-9.85 57.22-10.86 53.79-11.6 50.36-12.33 48.35-13.35 46.33-14.38 45.37-15.8 44.4-17.21 44.4-19.17L44.4-19.17Q44.4-22.41 47.15-24.66 49.9-26.9 54.17-26.9L54.17-26.9Q58.66-26.9 61.46-24.58 64.25-22.27 64.25-18.65L64.25-18.65 59.71-18.65Q59.71-20.51 58.14-21.85 56.56-23.19 54.17-23.19L54.17-23.19Q51.7-23.19 50.31-22.12 48.92-21.04 48.92-19.31L48.92-19.31Q48.92-17.68 50.21-16.85 51.51-16.02 54.89-15.26 58.27-14.5 60.37-13.45 62.47-12.4 63.48-10.93 64.5-9.45 64.5-7.32L64.5-7.32Q64.5-3.78 61.66-1.65 58.83 0.49 54.32 0.49L54.32 0.49Q51.14 0.49 48.7-0.63 46.26-1.76 44.88-3.77 43.5-5.79 43.5-8.13L43.5-8.13 48.02-8.13Q48.14-5.86 49.84-4.53 51.53-3.2 54.32-3.2L54.32-3.2Q56.88-3.2 58.43-4.24 59.98-5.27 59.98-7.01ZM92.69-13.33L92.69-12.92Q92.69-6.88 89.93-3.2 87.18 0.49 82.46 0.49L82.46 0.49Q77.65 0.49 74.89-2.56L74.89-2.56 74.89 10.16 70.38 10.16 70.38-26.42 74.5-26.42 74.72-23.49Q77.48-26.9 82.39-26.9L82.39-26.9Q87.15-26.9 89.92-23.32 92.69-19.73 92.69-13.33L92.69-13.33ZM88.18-13.43L88.18-13.43Q88.18-17.9 86.27-20.48 84.37-23.07 81.05-23.07L81.05-23.07Q76.95-23.07 74.89-19.43L74.89-19.43 74.89-6.81Q76.92-3.2 81.1-3.2L81.1-3.2Q84.34-3.2 86.26-5.77 88.18-8.35 88.18-13.43ZM103.33-26.42L103.33 0 98.82 0 98.82-26.42 103.33-26.42ZM98.45-33.42L98.45-33.42Q98.45-34.52 99.12-35.28 99.79-36.04 101.11-36.04 102.43-36.04 103.12-35.28 103.8-34.52 103.8-33.42 103.8-32.32 103.12-31.59 102.43-30.86 101.11-30.86 99.79-30.86 99.12-31.59 98.45-32.32 98.45-33.42ZM123.33-26.56L123.33-22.36Q122.3-22.53 121.11-22.53L121.11-22.53Q116.66-22.53 115.08-18.75L115.08-18.75 115.08 0 110.56 0 110.56-26.42 114.95-26.42 115.03-23.36Q117.25-26.9 121.33-26.9L121.33-26.9Q122.64-26.9 123.33-26.56L123.33-26.56ZM147.54 0L142.81 0Q142.42-0.78 142.17-2.78L142.17-2.78Q139.02 0.49 134.65 0.49L134.65 0.49Q130.75 0.49 128.24-1.72 125.74-3.93 125.74-7.32L125.74-7.32Q125.74-11.45 128.88-13.73 132.02-16.02 137.7-16.02L137.7-16.02 142.1-16.02 142.1-18.09Q142.1-20.46 140.68-21.86 139.27-23.27 136.51-23.27L136.51-23.27Q134.09-23.27 132.46-22.05 130.82-20.83 130.82-19.09L130.82-19.09 126.28-19.09Q126.28-21.07 127.68-22.91 129.09-24.76 131.49-25.83 133.9-26.9 136.78-26.9L136.78-26.9Q141.34-26.9 143.93-24.62 146.52-22.34 146.62-18.33L146.62-18.33 146.62-6.18Q146.62-2.54 147.54-0.39L147.54-0.39 147.54 0ZM135.31-3.44L135.31-3.44Q137.44-3.44 139.34-4.54 141.24-5.64 142.1-7.4L142.1-7.4 142.1-12.82 138.56-12.82Q130.26-12.82 130.26-7.96L130.26-7.96Q130.26-5.83 131.67-4.64 133.09-3.44 135.31-3.44ZM155.3-32.81L159.82-32.81 159.82-26.42 164.75-26.42 164.75-22.92 159.82-22.92 159.82-6.54Q159.82-4.96 160.48-4.16 161.14-3.37 162.73-3.37L162.73-3.37Q163.51-3.37 164.88-3.66L164.88-3.66 164.88 0Q163.09 0.49 161.41 0.49L161.41 0.49Q158.38 0.49 156.84-1.34 155.3-3.17 155.3-6.54L155.3-6.54 155.3-22.92 150.5-22.92 150.5-26.42 155.3-26.42 155.3-32.81ZM174.93-26.42L174.93 0 170.41 0 170.41-26.42 174.93-26.42ZM170.05-33.42L170.05-33.42Q170.05-34.52 170.72-35.28 171.39-36.04 172.71-36.04 174.03-36.04 174.71-35.28 175.4-34.52 175.4-33.42 175.4-32.32 174.71-31.59 174.03-30.86 172.71-30.86 171.39-30.86 170.72-31.59 170.05-32.32 170.05-33.42ZM180.96-13.13L180.96-13.45Q180.96-17.33 182.48-20.43 184.01-23.54 186.73-25.22 189.46-26.9 192.95-26.9L192.95-26.9Q198.34-26.9 201.67-23.17 205.01-19.43 205.01-13.23L205.01-13.23 205.01-12.92Q205.01-9.06 203.53-5.99 202.05-2.93 199.31-1.22 196.56 0.49 193 0.49L193 0.49Q187.62 0.49 184.29-3.25 180.96-6.98 180.96-13.13L180.96-13.13ZM185.5-12.92L185.5-12.92Q185.5-8.52 187.54-5.86 189.58-3.2 193-3.2L193-3.2Q196.44-3.2 198.46-5.9 200.49-8.59 200.49-13.45L200.49-13.45Q200.49-17.8 198.43-20.5 196.36-23.19 192.95-23.19L192.95-23.19Q189.6-23.19 187.55-20.53 185.5-17.87 185.5-12.92ZM210.67-26.42L214.94-26.42 215.09-23.1Q218.11-26.9 223-26.9L223-26.9Q231.37-26.9 231.44-17.46L231.44-17.46 231.44 0 226.93 0 226.93-17.48Q226.9-20.34 225.62-21.7 224.34-23.07 221.63-23.07L221.63-23.07Q219.43-23.07 217.77-21.9 216.11-20.73 215.18-18.82L215.18-18.82 215.18 0 210.67 0 210.67-26.42ZM251.34-35.55L257.39-35.55 269.01-6.54 280.63-35.55 286.71-35.55 286.71 0 282.03 0 282.03-13.84 282.47-28.78 270.8 0 267.21 0 255.56-28.71 256.02-13.84 256.02 0 251.34 0 251.34-35.55ZM305.24 0.49L305.24 0.49Q299.87 0.49 296.5-3.04 293.13-6.57 293.13-12.48L293.13-12.48 293.13-13.31Q293.13-17.24 294.63-20.32 296.13-23.41 298.83-25.16 301.53-26.9 304.68-26.9L304.68-26.9Q309.83-26.9 312.69-23.51 315.54-20.12 315.54-13.79L315.54-13.79 315.54-11.91 297.65-11.91Q297.75-8.01 299.93-5.6 302.12-3.2 305.49-3.2L305.49-3.2Q307.88-3.2 309.54-4.17 311.2-5.15 312.44-6.76L312.44-6.76 315.2-4.61Q311.88 0.49 305.24 0.49ZM304.68-23.19L304.68-23.19Q301.95-23.19 300.09-21.2 298.23-19.21 297.79-15.63L297.79-15.63 311.03-15.63 311.03-15.97Q310.83-19.41 309.17-21.3 307.51-23.19 304.68-23.19ZM331.73 0.49L331.73 0.49Q326.36 0.49 322.99-3.04 319.62-6.57 319.62-12.48L319.62-12.48 319.62-13.31Q319.62-17.24 321.12-20.32 322.62-23.41 325.32-25.16 328.02-26.9 331.17-26.9L331.17-26.9Q336.32-26.9 339.17-23.51 342.03-20.12 342.03-13.79L342.03-13.79 342.03-11.91 324.13-11.91Q324.23-8.01 326.42-5.6 328.6-3.2 331.97-3.2L331.97-3.2Q334.36-3.2 336.02-4.17 337.68-5.15 338.93-6.76L338.93-6.76 341.69-4.61Q338.37 0.49 331.73 0.49ZM331.17-23.19L331.17-23.19Q328.43-23.19 326.58-21.2 324.72-19.21 324.28-15.63L324.28-15.63 337.51-15.63 337.51-15.97Q337.32-19.41 335.66-21.3 334-23.19 331.17-23.19ZM348.86-32.81L353.38-32.81 353.38-26.42 358.31-26.42 358.31-22.92 353.38-22.92 353.38-6.54Q353.38-4.96 354.04-4.16 354.7-3.37 356.29-3.37L356.29-3.37Q357.07-3.37 358.43-3.66L358.43-3.66 358.43 0Q356.65 0.49 354.97 0.49L354.97 0.49Q351.94 0.49 350.4-1.34 348.86-3.17 348.86-6.54L348.86-6.54 348.86-22.92 344.05-22.92 344.05-26.42 348.86-26.42 348.86-32.81ZM378.96-7.01L378.96-7.01Q378.96-8.84 377.58-9.85 376.21-10.86 372.77-11.6 369.34-12.33 367.33-13.35 365.32-14.38 364.35-15.8 363.39-17.21 363.39-19.17L363.39-19.17Q363.39-22.41 366.13-24.66 368.88-26.9 373.15-26.9L373.15-26.9Q377.65-26.9 380.44-24.58 383.24-22.27 383.24-18.65L383.24-18.65 378.7-18.65Q378.7-20.51 377.12-21.85 375.55-23.19 373.15-23.19L373.15-23.19Q370.69-23.19 369.3-22.12 367.9-21.04 367.9-19.31L367.9-19.31Q367.9-17.68 369.2-16.85 370.49-16.02 373.87-15.26 377.25-14.5 379.35-13.45 381.45-12.4 382.47-10.93 383.48-9.45 383.48-7.32L383.48-7.32Q383.48-3.78 380.65-1.65 377.82 0.49 373.3 0.49L373.3 0.49Q370.13 0.49 367.68-0.63 365.24-1.76 363.86-3.77 362.48-5.79 362.48-8.13L362.48-8.13 367-8.13Q367.12-5.86 368.82-4.53 370.52-3.2 373.3-3.2L373.3-3.2Q375.86-3.2 377.41-4.24 378.96-5.27 378.96-7.01ZM423.88-11.28L428.59-11.28Q427.93-5.64 424.43-2.58 420.93 0.49 415.12 0.49L415.12 0.49Q408.82 0.49 405.02-4.03 401.22-8.54 401.22-16.11L401.22-16.11 401.22-19.53Q401.22-24.49 402.99-28.25 404.76-32.01 408.01-34.02 411.26-36.04 415.53-36.04L415.53-36.04Q421.2-36.04 424.61-32.87 428.03-29.71 428.59-24.12L428.59-24.12 423.88-24.12Q423.27-28.37 421.23-30.27 419.19-32.18 415.53-32.18L415.53-32.18Q411.04-32.18 408.49-28.86 405.94-25.54 405.94-19.41L405.94-19.41 405.94-15.97Q405.94-10.18 408.35-6.76 410.77-3.34 415.12-3.34L415.12-3.34Q419.02-3.34 421.11-5.11 423.2-6.88 423.88-11.28L423.88-11.28ZM447.05-26.56L447.05-22.36Q446.02-22.53 444.83-22.53L444.83-22.53Q440.38-22.53 438.8-18.75L438.8-18.75 438.8 0 434.28 0 434.28-26.42 438.67-26.42 438.75-23.36Q440.97-26.9 445.05-26.9L445.05-26.9Q446.36-26.9 447.05-26.56L447.05-26.56ZM461.69 0.49L461.69 0.49Q456.32 0.49 452.95-3.04 449.58-6.57 449.58-12.48L449.58-12.48 449.58-13.31Q449.58-17.24 451.09-20.32 452.59-23.41 455.28-25.16 457.98-26.9 461.13-26.9L461.13-26.9Q466.28-26.9 469.14-23.51 472-20.12 472-13.79L472-13.79 472-11.91 454.1-11.91Q454.2-8.01 456.38-5.6 458.57-3.2 461.94-3.2L461.94-3.2Q464.33-3.2 465.99-4.17 467.65-5.15 468.9-6.76L468.9-6.76 471.65-4.61Q468.33 0.49 461.69 0.49ZM461.13-23.19L461.13-23.19Q458.4-23.19 456.54-21.2 454.69-19.21 454.25-15.63L454.25-15.63 467.48-15.63 467.48-15.97Q467.28-19.41 465.62-21.3 463.96-23.19 461.13-23.19ZM498.26 0L493.53 0Q493.14-0.78 492.89-2.78L492.89-2.78Q489.74 0.49 485.37 0.49L485.37 0.49Q481.47 0.49 478.96-1.72 476.46-3.93 476.46-7.32L476.46-7.32Q476.46-11.45 479.6-13.73 482.74-16.02 488.42-16.02L488.42-16.02 492.82-16.02 492.82-18.09Q492.82-20.46 491.4-21.86 489.99-23.27 487.23-23.27L487.23-23.27Q484.81-23.27 483.18-22.05 481.54-20.83 481.54-19.09L481.54-19.09 477-19.09Q477-21.07 478.4-22.91 479.81-24.76 482.21-25.83 484.62-26.9 487.5-26.9L487.5-26.9Q492.06-26.9 494.65-24.62 497.24-22.34 497.34-18.33L497.34-18.33 497.34-6.18Q497.34-2.54 498.26-0.39L498.26-0.39 498.26 0ZM486.03-3.44L486.03-3.44Q488.16-3.44 490.06-4.54 491.96-5.64 492.82-7.4L492.82-7.4 492.82-12.82 489.28-12.82Q480.98-12.82 480.98-7.96L480.98-7.96Q480.98-5.83 482.39-4.64 483.81-3.44 486.03-3.44ZM506.02-32.81L510.54-32.81 510.54-26.42 515.47-26.42 515.47-22.92 510.54-22.92 510.54-6.54Q510.54-4.96 511.2-4.16 511.86-3.37 513.45-3.37L513.45-3.37Q514.23-3.37 515.59-3.66L515.59-3.66 515.59 0Q513.81 0.49 512.13 0.49L512.13 0.49Q509.1 0.49 507.56-1.34 506.02-3.17 506.02-6.54L506.02-6.54 506.02-22.92 501.21-22.92 501.21-26.42 506.02-26.42 506.02-32.81ZM525.65-26.42L525.65 0 521.13 0 521.13-26.42 525.65-26.42ZM520.77-33.42L520.77-33.42Q520.77-34.52 521.44-35.28 522.11-36.04 523.43-36.04 524.75-36.04 525.43-35.28 526.11-34.52 526.11-33.42 526.11-32.32 525.43-31.59 524.75-30.86 523.43-30.86 522.11-30.86 521.44-31.59 520.77-32.32 520.77-33.42ZM531.68-13.13L531.68-13.45Q531.68-17.33 533.2-20.43 534.73-23.54 537.45-25.22 540.17-26.9 543.67-26.9L543.67-26.9Q549.06-26.9 552.39-23.17 555.73-19.43 555.73-13.23L555.73-13.23 555.73-12.92Q555.73-9.06 554.25-5.99 552.77-2.93 550.03-1.22 547.28 0.49 543.71 0.49L543.71 0.49Q538.34 0.49 535.01-3.25 531.68-6.98 531.68-13.13L531.68-13.13ZM536.22-12.92L536.22-12.92Q536.22-8.52 538.26-5.86 540.3-3.2 543.71-3.2L543.71-3.2Q547.16-3.2 549.18-5.9 551.21-8.59 551.21-13.45L551.21-13.45Q551.21-17.8 549.15-20.5 547.08-23.19 543.67-23.19L543.67-23.19Q540.32-23.19 538.27-20.53 536.22-17.87 536.22-12.92ZM561.39-26.42L565.66-26.42 565.81-23.1Q568.83-26.9 573.72-26.9L573.72-26.9Q582.09-26.9 582.16-17.46L582.16-17.46 582.16 0 577.65 0 577.65-17.48Q577.62-20.34 576.34-21.7 575.06-23.07 572.35-23.07L572.35-23.07Q570.15-23.07 568.49-21.9 566.83-20.73 565.9-18.82L565.9-18.82 565.9 0 561.39 0 561.39-26.42Z" opacity="1" transform="matrix(1,0,0,1,0,0)" fill="#ffffff" class="slogan-text-1" data-fill-palette-color="quaternary" id="text-1"></path></svg></g></svg></g></svg></g></svg></g><g transform="matrix(1,0,0,1,42.784000000000006,0)"><svg viewBox="0 0 138.432 138.432" height="138.432" width="138.432"><g><svg xmlns="http://www.w3.org/2000/svg" xmlns:xlink="http://www.w3.org/1999/xlink" version="1.1" x="0" y="0" viewBox="0.5 0.5 23 23" style="enable-background:new 0 0 24 24;" xml:space="preserve" height="138.432" width="138.432" class="icon-icon-0" data-fill-palette-color="quaternary" id="icon-0"><g fill="#ffffff" data-fill-palette-color="quaternary"><path d="M19 0.5H5C2.519 0.5 0.5 2.519 0.5 5v14c0 2.481 2.019 4.5 4.5 4.5h14c2.481 0 4.5-2.019 4.5-4.5V5C23.5 2.519 21.481 0.5 19 0.5zM16 21.5H8c-2.481 0-4.5-2.019-4.5-4.5s2.019-4.5 4.5-4.5h8c2.481 0 4.5 2.019 4.5 4.5S18.481 21.5 16 21.5zM16 11.5H8c-2.481 0-4.5-2.019-4.5-4.5S5.519 2.5 8 2.5h8c2.481 0 4.5 2.019 4.5 4.5S18.481 11.5 16 11.5z" fill="#ffffff" data-fill-palette-color="quaternary"></path><g fill="#ffffff" data-fill-palette-color="quaternary"><circle cx="8" cy="7" r="2.5" fill="#ffffff" data-fill-palette-color="quaternary"></circle><circle cx="16" cy="17" r="2.5" fill="#ffffff" data-fill-palette-color="quaternary"></circle></g></g></svg></g></svg></g><g></g></svg></g></svg></g></svg></g></svg></g><defs></defs></svg><rect width="320" height="360" fill="none" stroke="none" visibility="hidden"></rect></g></svg></g></svg>